<?xml version="1.0" encoding="UTF-8"?>
<svg version="1.1" xmlns="http://www.w3.org/2000/svg" width="5000" height="5000">
<path d="M0 0 C1650 0 3300 0 5000 0 C5000 1650 5000 3300 5000 5000 C3350 5000 1700 5000 0 5000 C0 3350 0 1700 0 0 Z " fill="#231F20" transform="translate(0,0)"/>
<path d="M0 0 C3.82164502 0.01322669 7.64327985 0.00855258 11.46494138 0.00629318 C18.05176802 0.00473686 24.63850399 0.01397137 31.22530782 0.03100669 C40.74814585 0.05561909 50.27094104 0.0632244 59.79380742 0.06697067 C75.25228466 0.07350075 90.71071381 0.09336724 106.16916502 0.1218785 C121.1659074 0.14950906 136.16263662 0.17069831 151.15939939 0.18340194 C152.55115351 0.1845842 152.55115351 0.1845842 153.97102388 0.18579034 C158.62673097 0.18970608 163.28243815 0.19349705 167.9381454 0.19722605 C206.42688804 0.22821444 244.91557703 0.28095496 283.40427244 0.34819686 C283.40666079 1.41866508 283.40904914 2.4891333 283.41150987 3.59203994 C283.47051899 29.73769261 283.54653229 55.88325471 283.63998735 82.02880752 C283.68479651 94.67302253 283.7242448 107.3172103 283.75070798 119.96147811 C283.77380929 130.99273313 283.80734072 142.02390087 283.852974 153.05508649 C283.87674388 158.8864504 283.89557829 164.71772875 283.90188634 170.54913986 C283.90801161 176.05836205 283.92827339 181.56736581 283.95854795 187.0765065 C283.96721073 189.0788815 283.97107581 191.08128519 283.9692806 193.08367813 C283.95771901 211.96111023 285.87887116 230.66470884 289.71677244 249.16069686 C289.92842039 250.19291366 290.14006834 251.22513046 290.35812986 252.28862655 C292.39615786 261.87603219 295.10901112 271.12298372 298.40427244 280.34819686 C298.70204587 281.18802108 298.99981931 282.0278453 299.30661619 282.89311874 C311.31649343 316.40615793 328.81709155 346.64025051 352.40427244 373.34819686 C353.13903806 374.19382186 353.87380369 375.03944686 354.63083494 375.91069686 C364.08919539 386.64163672 374.12671457 396.53760478 385.40427244 405.34819686 C386.53028619 406.25188308 387.65523546 407.15689681 388.77927244 408.06304061 C420.42267873 433.44769583 457.20477641 451.16347763 496.40427244 461.34819686 C497.14242185 461.54993515 497.88057127 461.75167343 498.64108884 461.95952499 C542.34441472 473.82879826 589.79574825 471.81873127 633.40427244 461.34819686 C634.67786619 461.05300155 635.95145994 460.75780624 637.26364744 460.45366561 C641.01323635 459.52475162 644.71241678 458.4810089 648.40427244 457.34819686 C649.29324216 457.07588241 650.18221189 456.80356796 651.09812009 456.52300155 C723.87540764 433.76147884 783.01998166 382.87489661 818.32492673 315.57768905 C822.59613992 307.23641872 826.14968548 298.67339352 829.43332517 289.90215194 C830.13840862 288.04751832 830.86773787 286.20204545 831.61154783 284.36260116 C834.78928973 276.4197513 837.10060108 268.47463102 839.09177244 260.16069686 C839.38632322 258.96766952 839.680874 257.77464218 839.98435056 256.54546249 C859.67829031 176.04371777 848.06049162 70.82326377 848.40427244 0.34819686 C1282.02427244 0.34819686 1715.64427244 0.34819686 2162.40427244 0.34819686 C2162.89927244 105.28819686 2162.89927244 105.28819686 2163.40427244 212.34819686 C2170.55213098 269.53106519 2187.83498249 321.55943516 2225.40427244 366.34819686 C2225.81548337 366.84819198 2226.22669431 367.3481871 2226.65036619 367.86333358 C2237.96981072 381.61481819 2250.29550691 394.43688528 2264.40427244 405.34819686 C2265.49185352 406.22376337 2266.57769986 407.10148771 2267.66208494 407.98100936 C2287.68042 424.1305879 2309.91318676 436.93479028 2333.40427244 447.34819686 C2334.58247556 447.87800155 2335.76067869 448.40780624 2336.97458494 448.95366561 C2349.38219444 454.2247799 2362.43166881 457.76098287 2375.40427244 461.34819686 C2376.20671384 461.572816 2377.00915525 461.79743515 2377.83591306 462.02886093 C2448.86983208 481.41069201 2526.32641431 465.7852859 2589.53854978 430.47124374 C2606.29770404 420.79437655 2621.68298825 408.60972848 2635.94333494 395.58647811 C2637.56849493 394.10835641 2639.2090115 392.64692425 2640.86520994 391.20366561 C2651.45432293 381.93401623 2660.47479578 371.47031582 2668.94772947 360.27153671 C2669.93498281 358.96788572 2670.92835762 357.66885208 2671.92722166 356.37407577 C2714.70876848 300.74073365 2725.83780382 238.32588741 2725.91038334 170.09527051 C2725.91987375 164.11090637 2725.94608415 158.12661377 2725.97038877 152.14229476 C2726.01376785 140.85256473 2726.04248927 129.56284881 2726.06571215 118.27306128 C2726.09291869 105.40204462 2726.13681952 92.53110097 2726.18200088 79.66013682 C2726.27443681 53.2228633 2726.34630376 26.78556688 2726.40427244 0.34819686 C2762.5572774 0.23316511 2798.71024968 0.14535317 2834.8634007 0.09287022 C2839.15428728 0.08661843 2843.4451735 0.08014665 2847.73605955 0.07353866 C2848.59011711 0.07222711 2849.44417467 0.07091556 2850.32411277 0.06956426 C2864.06182401 0.04794589 2877.79942812 0.00860141 2891.5370763 -0.03756712 C2905.6861432 -0.08471341 2919.83515491 -0.11217802 2933.9842971 -0.12224561 C2941.90935877 -0.12842602 2949.83419711 -0.14313426 2957.75917852 -0.18045342 C2997.10626198 -0.36005294 3034.82369834 0.94768107 3073.40427244 9.34819686 C3074.51436894 9.58677823 3075.62446544 9.82535959 3076.76820123 10.07117069 C3103.71114277 15.89812402 3129.74443329 26.15542387 3154.40427244 38.34819686 C3155.29469236 38.78454452 3156.18511228 39.22089218 3157.10251462 39.67046249 C3183.28681268 52.60452849 3207.46572313 69.09664567 3229.40427244 88.34819686 C3230.467749 89.26278671 3230.467749 89.26278671 3231.55270994 90.19585311 C3242.71975844 99.83597866 3253.82154676 109.80045582 3263.41989744 121.02788436 C3264.93379973 122.79807721 3266.46903947 124.55004468 3268.01364744 126.29350936 C3321.57930285 187.08455237 3353.65204054 268.34532643 3353.53077227 349.46272624 C3353.53189092 351.18742615 3353.53344726 352.91212582 3353.53539817 354.63682499 C3353.53949335 359.3777233 3353.5373795 364.11860152 3353.5342523 368.85949981 C3353.53194638 374.03591825 3353.53545848 379.21233333 3353.53821912 384.38875109 C3353.54227229 393.49657976 3353.54259901 402.60440272 3353.54051318 411.71223196 C3353.53740769 425.34718955 3353.54004978 438.98214189 3353.54381189 452.61709909 C3353.55005141 475.85441508 3353.55152453 499.09172857 3353.55039442 522.32904518 C3353.54926249 545.88348787 3353.55029411 569.43792899 3353.55396688 592.99237144 C3353.55419887 594.49418797 3353.55443084 595.9960045 3353.5546628 597.49782103 C3353.55560234 603.55317608 3353.55655863 609.60853112 3353.55753399 615.66388616 C3353.5602794 632.73361283 3353.5626588 649.80333955 3353.56478596 666.87306631 C3353.56488351 667.65529713 3353.56498106 668.43752795 3353.56508156 669.24346274 C3353.57058752 713.73629415 3353.57089119 758.22912565 3353.57130242 802.72195735 C3353.57136567 809.52366888 3353.57143219 816.32538041 3353.57150298 823.12709194 C3353.57152067 824.83189305 3353.57153804 826.53669416 3353.5715551 828.24149527 C3353.57194286 866.49998157 3353.57412136 904.75846769 3353.57668535 943.01695391 C3353.57725691 951.55524126 3353.57781089 960.09352862 3353.57836599 968.63181598 C3353.57842111 969.47935632 3353.57847623 970.32689666 3353.57853302 971.20012004 C3353.57886752 976.34485446 3353.57920129 981.48958888 3353.57953458 986.6343233 C3353.57970166 989.21156477 3353.57986917 991.78880625 3353.58003672 994.36604772 C3353.58263865 1034.43831524 3353.58486893 1074.51058278 3353.58671892 1114.58285034 C3353.58675929 1115.45598476 3353.58679966 1116.32911918 3353.58684125 1117.22871222 C3353.58940451 1172.87096899 3353.59030374 1228.51322566 3353.59004092 1284.15548249 C3353.59002816 1286.89170638 3353.5900162 1289.62793027 3353.59000451 1292.36415416 C3353.58992217 1311.58723948 3353.58981946 1330.8103248 3353.58971163 1350.03341012 C3353.58968086 1355.54508135 3353.58965079 1361.05675257 3353.58962081 1366.56842379 C3353.58959572 1371.16587794 3353.58956993 1375.7633321 3353.5895427 1380.36078625 C3353.58903132 1467.1888046 3353.59044808 1554.01682202 3353.59989011 1640.84483993 C3353.60003915 1642.21587303 3353.60003915 1642.21587303 3353.6001912 1643.61460378 C3353.60330253 1672.17277415 3353.60666903 1700.73094449 3353.61008298 1729.28911483 C3353.61358444 1758.59212767 3353.61705492 1787.89514051 3353.62034738 1817.19815338 C3353.62044891 1818.10042405 3353.62055043 1819.00269472 3353.62065504 1819.93230692 C3353.62700491 1876.4455465 3353.6309262 1932.95878582 3353.63220537 1989.47202575 C3353.63222539 1990.34495196 3353.63224542 1991.21787816 3353.63226606 1992.11725667 C3353.63314141 2030.45536302 3353.63346114 2068.79346936 3353.63317517 2107.13157571 C3353.63306089 2122.55542208 3353.63300482 2137.97926844 3353.63297185 2153.4031148 C3353.63296545 2155.96044024 3353.63295637 2158.51776567 3353.6329467 2161.07509111 C3353.63281024 2200.18373001 3353.63415447 2239.29236807 3353.63999188 2278.40100658 C3353.64018039 2279.66571772 3353.64018039 2279.66571772 3353.6403727 2280.95597857 C3353.64240168 2294.51856275 3353.64454571 2308.08114692 3353.64669951 2321.64373108 C3353.65281015 2360.15430416 3353.65785136 2398.6648761 3353.65572834 2437.17544973 C3353.65568563 2437.95721147 3353.65564291 2438.7389732 3353.65559891 2439.54442469 C3353.65464544 2456.60187192 3353.6531295 2473.65931905 3353.65106219 2490.71676618 C3353.65024589 2497.5202473 3353.64950226 2504.32372842 3353.64878118 2511.12720954 C3353.64870053 2511.86934379 3353.64861988 2512.61147805 3353.64853678 2513.37610121 C3353.64601523 2536.89422858 3353.64962534 2560.41234961 3353.656799 2583.93047588 C3353.66403451 2607.73920328 3353.66434292 2631.54791801 3353.65626023 2655.35664589 C3353.65187726 2668.89568869 3353.65295423 2682.43470436 3353.66212702 2695.97374492 C3353.6676743 2704.96979096 3353.66594459 2713.96581677 3353.65834423 2722.96186126 C3353.65424032 2728.05868961 3353.65317284 2733.15546462 3353.66109492 2738.25228968 C3353.69842612 2763.99819275 3353.32424042 2789.32877067 3348.59177244 2814.72319686 C3348.39327695 2815.81223312 3348.39327695 2815.81223312 3348.19077146 2816.92327011 C3346.17902741 2827.93526975 3343.86126998 2838.69441487 3340.40427244 2849.34819686 C3340.06412107 2850.42955917 3339.7239697 2851.51092147 3339.37351072 2852.62505233 C3334.00840896 2869.64294607 3328.00963206 2886.17927463 3320.40427244 2902.34819686 C3319.81742673 2903.61035018 3319.81742673 2903.61035018 3319.21872556 2904.89800155 C3307.08650764 2930.78746825 3291.28421945 2954.60125819 3272.95407712 2976.48979843 C3271.52876905 2978.19891075 3270.12455562 2979.92301753 3268.72458494 2981.65288436 C3262.21384256 2989.5869941 3255.07315957 2996.88942063 3247.84177244 3004.16069686 C3247.35871641 3004.64901992 3246.87566038 3005.13734298 3246.37796628 3005.64046371 C3239.73354607 3012.34086276 3232.78312224 3018.46572036 3225.40427244 3024.34819686 C3224.36492636 3025.22322531 3223.32980435 3026.10335074 3222.30270994 3026.99272811 C3192.03467462 3052.99699994 3155.3883621 3072.82160794 3118.00534666 3086.40288436 C3116.30171332 3087.02203851 3114.60011713 3087.64683382 3112.90085447 3088.27788436 C3094.1442671 3095.2432348 3075.13201582 3100.02856805 3055.46677244 3103.59819686 C3054.7949896 3103.72316543 3054.12320676 3103.848134 3053.43106687 3103.97688949 C3033.09161393 3107.72317255 3012.56655469 3108.6512455 2991.92402738 3108.60119653 C2989.75989048 3108.60343779 2987.59575435 3108.60655318 2985.4316198 3108.61044833 C2979.52452111 3108.618583 2973.61748751 3108.61443738 2967.71038897 3108.6081566 C2961.91478926 3108.6040015 2956.11920262 3108.609385 2950.32360471 3108.6144054 C2938.29177341 3108.62449233 2926.25995822 3108.62517538 2914.22812427 3108.62067835 C2901.98044316 3108.61613997 2889.73277346 3108.61602772 2877.48509245 3108.62114377 C2876.70660129 3108.62146616 2875.92811012 3108.62178855 2875.12602831 3108.6221207 C2871.15067991 3108.62378588 2867.17533155 3108.62551957 2863.1999832 3108.62727577 C2834.20818208 3108.63992918 2805.21638645 3108.64270336 2776.22458303 3108.64044082 C2746.8457772 3108.63817532 2717.46697641 3108.6402459 2688.08817136 3108.64758575 C2686.21356278 3108.64804973 2684.3389542 3108.64851368 2682.46434561 3108.64897759 C2674.90564157 3108.65085671 2667.34693753 3108.65276931 2659.7882335 3108.65471997 C2638.48268387 3108.66021013 2617.1771341 3108.66496914 2595.87158418 3108.6692239 C2594.40722608 3108.66951655 2594.40722608 3108.66951655 2592.913285 3108.66981512 C2537.41412325 3108.68082138 2481.91496123 3108.6814342 2426.41579859 3108.68225684 C2417.93314594 3108.68238333 2409.45049328 3108.68251638 2400.96784063 3108.68265794 C2398.841681 3108.68269333 2396.71552137 3108.68272808 2394.58936174 3108.68276219 C2346.85708533 3108.68353799 2299.12480952 3108.68789603 2251.39253341 3108.69302269 C2240.73719083 3108.69416582 2230.08184825 3108.69527377 2219.42650567 3108.69638396 C2217.83996299 3108.69654932 2217.83996299 3108.69654932 2216.22136895 3108.69671803 C2209.80091338 3108.69738704 2203.38045781 3108.69805457 2196.96000225 3108.69872116 C2193.74365875 3108.69905532 2190.52731526 3108.69939034 2187.31097176 3108.69972543 C2137.30384846 3108.70492903 2087.29672512 3108.70938968 2037.28960168 3108.71308982 C2035.6552682 3108.71321093 2035.6552682 3108.71321093 2033.98791787 3108.71333449 C1964.56426267 3108.71846024 1895.1406078 3108.72025955 1825.71695243 3108.71973383 C1822.30353682 3108.71970832 1818.89012122 3108.71968439 1815.47670561 3108.719661 C1791.49650149 3108.71949632 1767.51629738 3108.71929091 1743.53609326 3108.71907524 C1736.6605637 3108.71901371 1729.78503415 3108.71895358 1722.90950459 3108.71889362 C1717.17441926 3108.71884343 1711.43933392 3108.71879185 1705.70424859 3108.71873739 C1597.38440644 3108.71771456 1489.06456727 3108.72055025 1380.74472654 3108.73943222 C1379.60433689 3108.73963093 1378.46394724 3108.73982965 1377.28900033 3108.74003439 C1341.65742104 3108.74625715 1306.02584185 3108.75299012 1270.39426267 3108.75981796 C1233.83268109 3108.76682092 1197.2710995 3108.77376191 1160.70951784 3108.78034675 C1159.02083912 3108.78065133 1159.02083912 3108.78065133 1157.29804568 3108.78096206 C1086.78205768 3108.79366234 1016.26607053 3108.80150448 945.75008142 3108.80406272 C944.66082754 3108.80410278 943.57157365 3108.80414283 942.44931208 3108.8041841 C894.6099304 3108.80593483 846.77054876 3108.80657427 798.93116705 3108.80600233 C779.68492056 3108.80577377 760.43867407 3108.80566163 741.19242757 3108.80559569 C738.00137605 3108.80558289 734.81032453 3108.80556473 731.61927301 3108.80554539 C682.82546713 3108.80527249 634.03166399 3108.80795896 585.23785937 3108.81963575 C584.18609567 3108.81988709 583.13433198 3108.82013844 582.05069665 3108.82039739 C565.13262392 3108.82445526 548.21455125 3108.82874335 531.29647858 3108.83305101 C483.25527475 3108.8452732 435.21407457 3108.85535411 387.17286897 3108.85110867 C386.19749702 3108.85102324 385.22212508 3108.85093782 384.21719641 3108.8508498 C362.93463091 3108.84894281 341.65206573 3108.84591086 320.36950055 3108.84177637 C311.88066141 3108.8401438 303.39182225 3108.83865652 294.90298307 3108.83721435 C293.9770137 3108.83705305 293.05104434 3108.83689174 292.0970153 3108.83672555 C262.7614671 3108.83168387 233.42593925 3108.8388993 204.0903946 3108.85324999 C175.18726234 3108.86733697 146.28415837 3108.86920649 117.38102605 3108.85347612 C113.41456009 3108.85131909 109.44809407 3108.84930129 105.48162799 3108.847367 C104.70517256 3108.84698297 103.92871712 3108.84659894 103.12873274 3108.84620327 C90.93028757 3108.84053194 78.73188976 3108.84812733 66.53345216 3108.86152821 C54.57204438 3108.87439319 42.61070855 3108.87285746 30.64930453 3108.85634046 C24.29242804 3108.8481425 17.93572247 3108.84597081 11.57885661 3108.86184184 C-14.44746565 3108.92254639 -39.85983057 3108.54165084 -65.59572756 3104.34819686 C-66.62364944 3104.18355619 -67.65157133 3104.01891552 -68.71064236 3103.84928573 C-133.60299349 3093.2999228 -198.65955247 3062.81601286 -246.90041506 3017.83257186 C-249.01240169 3015.88587114 -251.15035724 3014.00256755 -253.32619631 3012.12944686 C-258.08709201 3007.97680087 -262.56955904 3003.5663398 -267.03322756 2999.09819686 C-267.87434084 2998.25627792 -268.71545413 2997.41435897 -269.58205569 2996.54692733 C-274.54998915 2991.52970115 -279.24996987 2986.49180451 -283.58400881 2980.91460311 C-285.45184666 2978.53174978 -287.41083233 2976.25700697 -289.40993655 2973.98418319 C-325.79719699 2932.29246878 -350.72406945 2876.81592461 -361.12111819 2822.78911483 C-361.53964402 2820.63663473 -361.98860983 2818.49457502 -362.45510256 2816.35210311 C-367.84884663 2790.34655137 -368.03616551 2764.21155486 -367.97538233 2737.78867379 C-367.96684636 2732.59565066 -367.97600931 2727.40265056 -367.9827629 2722.20962891 C-367.99223163 2713.09744427 -367.99067238 2703.98531444 -367.98173467 2694.87313003 C-367.96841233 2681.23195807 -367.97254878 2667.59082833 -367.97996653 2653.94965385 C-367.99210691 2630.69561353 -367.9900968 2607.44159962 -367.98026049 2584.18755996 C-367.97034287 2560.63177473 -367.96700435 2537.07600193 -367.97163737 2513.52021492 C-367.97178069 2512.7761622 -367.971924 2512.03210948 -367.97207167 2511.2655097 C-367.97338657 2504.44632723 -367.9747705 2497.62714476 -367.97623709 2490.80796231 C-367.97990771 2473.71114124 -367.98255267 2456.61432009 -367.98450661 2439.51749873 C-367.98459666 2438.734213 -367.98468672 2437.95092728 -367.9847795 2437.14390562 C-367.98911913 2398.56619921 -367.98208643 2359.98849581 -367.97404826 2321.41079032 C-367.97122466 2307.83586944 -367.96842251 2294.26094856 -367.96577251 2280.68602765 C-367.96560742 2279.84208828 -367.96544233 2278.99814892 -367.96527224 2278.12863563 C-367.95766656 2238.9976482 -367.95709804 2199.86666167 -367.95816745 2160.73567363 C-367.95825939 2157.32021667 -367.95834339 2153.90475971 -367.95842755 2150.48930275 C-367.95878827 2135.90104806 -367.95919679 2121.31279337 -367.95965655 2106.72453869 C-367.96085627 2068.33535055 -367.96103683 2029.94616244 -367.96045363 1991.55697429 C-367.96044073 1990.68309103 -367.96042784 1989.80920777 -367.96041455 1988.9088432 C-367.9595648 1932.32672249 -367.95431769 1875.74460315 -367.94574606 1819.1624831 C-367.94560954 1818.25939171 -367.94547301 1817.35630032 -367.94533235 1816.42584253 C-367.94075636 1786.17773303 -367.93589714 1755.92962357 -367.93101933 1725.68151412 C-367.92656125 1698.02237373 -367.92223861 1670.36323333 -367.91829836 1642.70409286 C-367.91816805 1641.78944107 -367.91803773 1640.87478927 -367.91790347 1639.93242075 C-367.90557521 1553.06950186 -367.90712635 1466.2065846 -367.91127001 1379.34366514 C-367.91148892 1374.74507571 -367.91170505 1370.14648628 -367.91192123 1365.54789685 C-367.91196403 1364.63783643 -367.91200683 1363.72777601 -367.91205092 1362.790138 C-367.91213734 1360.95217955 -367.91222374 1359.11422111 -367.91231012 1357.27626266 C-367.91239648 1355.43909231 -367.91248291 1353.60192195 -367.91256941 1351.76475159 C-367.91351765 1331.62106481 -367.91443926 1311.47737802 -367.91530847 1291.33369123 C-367.91542682 1288.59710358 -367.91554637 1285.86051593 -367.915666 1283.12392829 C-367.91808553 1227.47657451 -367.91797543 1171.82922124 -367.91496718 1116.18186748 C-367.91492013 1115.30832345 -367.91487308 1114.43477941 -367.9148246 1113.53476435 C-367.9126562 1073.45029662 -367.90971283 1033.36582897 -367.90614477 993.28136134 C-367.90576305 988.98552952 -367.90538497 984.6896977 -367.90500686 980.39386589 C-367.90493204 979.5444178 -367.90485722 978.69496972 -367.90478013 977.81978079 C-367.90440284 973.53544608 -367.90402624 969.25111137 -367.90365059 964.96677667 C-367.90350051 963.25579957 -367.90335042 961.54482247 -367.90320033 959.83384537 C-367.90308904 958.56432803 -367.90308904 958.56432803 -367.9029755 957.26916388 C-367.90252588 952.14980787 -367.90206803 947.03045187 -367.90160503 941.91109586 C-367.89814972 903.63075963 -367.89591734 865.35042394 -367.89731014 827.07008755 C-367.89734035 826.22641085 -367.89737057 825.38273415 -367.8974017 824.51349149 C-367.89773777 815.16831692 -367.89810466 805.82314236 -367.89847991 796.47796779 C-367.89861516 793.09582392 -367.89874967 789.71368005 -367.89888346 786.33153617 C-367.89891656 785.4962875 -367.89894965 784.66103882 -367.89898375 783.80047958 C-367.90049542 745.27286345 -367.90067236 706.74524864 -367.89356422 668.21763301 C-367.89342019 667.43570829 -367.89327615 666.65378358 -367.89312775 665.84816417 C-367.88996034 648.78830335 -367.88619782 631.72844271 -367.88184924 614.66858214 C-367.88012203 607.8645119 -367.87846324 601.06044164 -367.87682307 594.25637138 C-367.87664206 593.51417334 -367.87646104 592.7719753 -367.87627455 592.00728642 C-367.87056752 568.47939237 -367.87095501 544.95150379 -367.87487233 521.42360953 C-367.87880811 497.60993694 -367.87580118 473.79627801 -367.86436369 449.98260709 C-367.85806864 436.43796896 -367.85722219 422.89335701 -367.86442329 409.34871918 C-367.86865857 400.35293627 -367.86564331 391.3571746 -367.85673866 382.36139515 C-367.85189282 377.26230574 -367.85010564 372.16326907 -367.85725404 367.06418116 C-367.88769003 343.64128921 -367.67119663 320.71116301 -363.34572756 297.59819686 C-363.1281177 296.42120224 -362.91050784 295.24420761 -362.68630373 294.03154647 C-352.69061605 241.15971284 -331.80489042 191.56259065 -299.59572756 148.34819686 C-299.19676272 147.81033554 -298.79779788 147.27247421 -298.38674319 146.71831405 C-284.16318225 127.62759256 -268.05122176 108.87703425 -249.95119631 93.36772811 C-248.16894489 91.8396618 -246.40359322 90.2918553 -244.64650881 88.73491561 C-218.30560693 65.52805872 -188.23708717 47.30541548 -156.42019045 32.65801132 C-154.47659641 31.75669037 -152.54123176 30.83747806 -150.61306155 29.90361679 C-141.83383541 25.70509341 -132.88251836 22.46012149 -123.65822756 19.41069686 C-122.88070132 19.15184707 -122.10317507 18.89299728 -121.30208743 18.62630355 C-105.92698341 13.53306773 -90.48086651 9.54024606 -74.59572756 6.34819686 C-73.73962893 6.17497909 -72.8835303 6.00176132 -72.00148928 5.82329452 C-66.88964094 4.81773802 -61.75701617 4.05336018 -56.59572756 3.34819686 C-55.69503177 3.22414801 -54.79433597 3.10009915 -53.86634636 2.97229123 C-35.88027186 0.56697724 -18.12327071 -0.07908239 0 0 Z " fill="#231F20" transform="translate(1007.5957275629044,1126.651803135872)"/>
<path d="M0 0 C3.82164502 0.01322669 7.64327985 0.00855258 11.46494138 0.00629318 C18.05176802 0.00473686 24.63850399 0.01397137 31.22530782 0.03100669 C40.74814585 0.05561909 50.27094104 0.0632244 59.79380742 0.06697067 C75.25228466 0.07350075 90.71071381 0.09336724 106.16916502 0.1218785 C121.1659074 0.14950906 136.16263662 0.17069831 151.15939939 0.18340194 C152.55115351 0.1845842 152.55115351 0.1845842 153.97102388 0.18579034 C158.62673097 0.18970608 163.28243815 0.19349705 167.9381454 0.19722605 C206.42688804 0.22821444 244.91557703 0.28095496 283.40427244 0.34819686 C283.40666079 1.41866508 283.40904914 2.4891333 283.41150987 3.59203994 C283.47051899 29.73769261 283.54653229 55.88325471 283.63998735 82.02880752 C283.68479651 94.67302253 283.7242448 107.3172103 283.75070798 119.96147811 C283.77380929 130.99273313 283.80734072 142.02390087 283.852974 153.05508649 C283.87674388 158.8864504 283.89557829 164.71772875 283.90188634 170.54913986 C283.90801161 176.05836205 283.92827339 181.56736581 283.95854795 187.0765065 C283.96721073 189.0788815 283.97107581 191.08128519 283.9692806 193.08367813 C283.95771901 211.96111023 285.87887116 230.66470884 289.71677244 249.16069686 C289.92842039 250.19291366 290.14006834 251.22513046 290.35812986 252.28862655 C292.39615786 261.87603219 295.10901112 271.12298372 298.40427244 280.34819686 C298.70204587 281.18802108 298.99981931 282.0278453 299.30661619 282.89311874 C311.31649343 316.40615793 328.81709155 346.64025051 352.40427244 373.34819686 C353.13903806 374.19382186 353.87380369 375.03944686 354.63083494 375.91069686 C364.08919539 386.64163672 374.12671457 396.53760478 385.40427244 405.34819686 C386.53028619 406.25188308 387.65523546 407.15689681 388.77927244 408.06304061 C420.42267873 433.44769583 457.20477641 451.16347763 496.40427244 461.34819686 C497.14242185 461.54993515 497.88057127 461.75167343 498.64108884 461.95952499 C542.34441472 473.82879826 589.79574825 471.81873127 633.40427244 461.34819686 C634.67786619 461.05300155 635.95145994 460.75780624 637.26364744 460.45366561 C641.01323635 459.52475162 644.71241678 458.4810089 648.40427244 457.34819686 C649.29324216 457.07588241 650.18221189 456.80356796 651.09812009 456.52300155 C723.87540764 433.76147884 783.01998166 382.87489661 818.32492673 315.57768905 C822.59613992 307.23641872 826.14968548 298.67339352 829.43332517 289.90215194 C830.13840862 288.04751832 830.86773787 286.20204545 831.61154783 284.36260116 C834.78928973 276.4197513 837.10060108 268.47463102 839.09177244 260.16069686 C839.38632322 258.96766952 839.680874 257.77464218 839.98435056 256.54546249 C859.67829031 176.04371777 848.06049162 70.82326377 848.40427244 0.34819686 C1282.02427244 0.34819686 1715.64427244 0.34819686 2162.40427244 0.34819686 C2162.89927244 105.28819686 2162.89927244 105.28819686 2163.40427244 212.34819686 C2170.55213098 269.53106519 2187.83498249 321.55943516 2225.40427244 366.34819686 C2225.81548337 366.84819198 2226.22669431 367.3481871 2226.65036619 367.86333358 C2237.96981072 381.61481819 2250.29550691 394.43688528 2264.40427244 405.34819686 C2265.49185352 406.22376337 2266.57769986 407.10148771 2267.66208494 407.98100936 C2287.68042 424.1305879 2309.91318676 436.93479028 2333.40427244 447.34819686 C2334.58247556 447.87800155 2335.76067869 448.40780624 2336.97458494 448.95366561 C2349.38219444 454.2247799 2362.43166881 457.76098287 2375.40427244 461.34819686 C2376.20671384 461.572816 2377.00915525 461.79743515 2377.83591306 462.02886093 C2448.86983208 481.41069201 2526.32641431 465.7852859 2589.53854978 430.47124374 C2606.29770404 420.79437655 2621.68298825 408.60972848 2635.94333494 395.58647811 C2637.56849493 394.10835641 2639.2090115 392.64692425 2640.86520994 391.20366561 C2651.45432293 381.93401623 2660.47479578 371.47031582 2668.94772947 360.27153671 C2669.93498281 358.96788572 2670.92835762 357.66885208 2671.92722166 356.37407577 C2714.70876848 300.74073365 2725.83780382 238.32588741 2725.91038334 170.09527051 C2725.91987375 164.11090637 2725.94608415 158.12661377 2725.97038877 152.14229476 C2726.01376785 140.85256473 2726.04248927 129.56284881 2726.06571215 118.27306128 C2726.09291869 105.40204462 2726.13681952 92.53110097 2726.18200088 79.66013682 C2726.27443681 53.2228633 2726.34630376 26.78556688 2726.40427244 0.34819686 C2762.5572774 0.23316511 2798.71024968 0.14535317 2834.8634007 0.09287022 C2839.15428728 0.08661843 2843.4451735 0.08014665 2847.73605955 0.07353866 C2848.59011711 0.07222711 2849.44417467 0.07091556 2850.32411277 0.06956426 C2864.06182401 0.04794589 2877.79942812 0.00860141 2891.5370763 -0.03756712 C2905.6861432 -0.08471341 2919.83515491 -0.11217802 2933.9842971 -0.12224561 C2941.90935877 -0.12842602 2949.83419711 -0.14313426 2957.75917852 -0.18045342 C2997.10626198 -0.36005294 3034.82369834 0.94768107 3073.40427244 9.34819686 C3074.51436894 9.58677823 3075.62446544 9.82535959 3076.76820123 10.07117069 C3103.71114277 15.89812402 3129.74443329 26.15542387 3154.40427244 38.34819686 C3155.29469236 38.78454452 3156.18511228 39.22089218 3157.10251462 39.67046249 C3183.28681268 52.60452849 3207.46572313 69.09664567 3229.40427244 88.34819686 C3230.467749 89.26278671 3230.467749 89.26278671 3231.55270994 90.19585311 C3242.71975844 99.83597866 3253.82154676 109.80045582 3263.41989744 121.02788436 C3264.93379973 122.79807721 3266.46903947 124.55004468 3268.01364744 126.29350936 C3321.57930285 187.08455237 3353.65204054 268.34532643 3353.53077227 349.46272624 C3353.53189092 351.18742615 3353.53344726 352.91212582 3353.53539817 354.63682499 C3353.53949335 359.3777233 3353.5373795 364.11860152 3353.5342523 368.85949981 C3353.53194638 374.03591825 3353.53545848 379.21233333 3353.53821912 384.38875109 C3353.54227229 393.49657976 3353.54259901 402.60440272 3353.54051318 411.71223196 C3353.53740769 425.34718955 3353.54004978 438.98214189 3353.54381189 452.61709909 C3353.55005141 475.85441508 3353.55152453 499.09172857 3353.55039442 522.32904518 C3353.54926249 545.88348787 3353.55029411 569.43792899 3353.55396688 592.99237144 C3353.55419887 594.49418797 3353.55443084 595.9960045 3353.5546628 597.49782103 C3353.55560234 603.55317608 3353.55655863 609.60853112 3353.55753399 615.66388616 C3353.5602794 632.73361283 3353.5626588 649.80333955 3353.56478596 666.87306631 C3353.56488351 667.65529713 3353.56498106 668.43752795 3353.56508156 669.24346274 C3353.57058752 713.73629415 3353.57089119 758.22912565 3353.57130242 802.72195735 C3353.57136567 809.52366888 3353.57143219 816.32538041 3353.57150298 823.12709194 C3353.57152067 824.83189305 3353.57153804 826.53669416 3353.5715551 828.24149527 C3353.57194286 866.49998157 3353.57412136 904.75846769 3353.57668535 943.01695391 C3353.57725691 951.55524126 3353.57781089 960.09352862 3353.57836599 968.63181598 C3353.57842111 969.47935632 3353.57847623 970.32689666 3353.57853302 971.20012004 C3353.57886752 976.34485446 3353.57920129 981.48958888 3353.57953458 986.6343233 C3353.57970166 989.21156477 3353.57986917 991.78880625 3353.58003672 994.36604772 C3353.58263865 1034.43831524 3353.58486893 1074.51058278 3353.58671892 1114.58285034 C3353.58675929 1115.45598476 3353.58679966 1116.32911918 3353.58684125 1117.22871222 C3353.58940451 1172.87096899 3353.59030374 1228.51322566 3353.59004092 1284.15548249 C3353.59002816 1286.89170638 3353.5900162 1289.62793027 3353.59000451 1292.36415416 C3353.58992217 1311.58723948 3353.58981946 1330.8103248 3353.58971163 1350.03341012 C3353.58968086 1355.54508135 3353.58965079 1361.05675257 3353.58962081 1366.56842379 C3353.58959572 1371.16587794 3353.58956993 1375.7633321 3353.5895427 1380.36078625 C3353.58903132 1467.1888046 3353.59044808 1554.01682202 3353.59989011 1640.84483993 C3353.60003915 1642.21587303 3353.60003915 1642.21587303 3353.6001912 1643.61460378 C3353.60330253 1672.17277415 3353.60666903 1700.73094449 3353.61008298 1729.28911483 C3353.61358444 1758.59212767 3353.61705492 1787.89514051 3353.62034738 1817.19815338 C3353.62044891 1818.10042405 3353.62055043 1819.00269472 3353.62065504 1819.93230692 C3353.62700491 1876.4455465 3353.6309262 1932.95878582 3353.63220537 1989.47202575 C3353.63222539 1990.34495196 3353.63224542 1991.21787816 3353.63226606 1992.11725667 C3353.63314141 2030.45536302 3353.63346114 2068.79346936 3353.63317517 2107.13157571 C3353.63306089 2122.55542208 3353.63300482 2137.97926844 3353.63297185 2153.4031148 C3353.63296545 2155.96044024 3353.63295637 2158.51776567 3353.6329467 2161.07509111 C3353.63281024 2200.18373001 3353.63415447 2239.29236807 3353.63999188 2278.40100658 C3353.64018039 2279.66571772 3353.64018039 2279.66571772 3353.6403727 2280.95597857 C3353.64240168 2294.51856275 3353.64454571 2308.08114692 3353.64669951 2321.64373108 C3353.65281015 2360.15430416 3353.65785136 2398.6648761 3353.65572834 2437.17544973 C3353.65568563 2437.95721147 3353.65564291 2438.7389732 3353.65559891 2439.54442469 C3353.65464544 2456.60187192 3353.6531295 2473.65931905 3353.65106219 2490.71676618 C3353.65024589 2497.5202473 3353.64950226 2504.32372842 3353.64878118 2511.12720954 C3353.64870053 2511.86934379 3353.64861988 2512.61147805 3353.64853678 2513.37610121 C3353.64601523 2536.89422858 3353.64962534 2560.41234961 3353.656799 2583.93047588 C3353.66403451 2607.73920328 3353.66434292 2631.54791801 3353.65626023 2655.35664589 C3353.65187726 2668.89568869 3353.65295423 2682.43470436 3353.66212702 2695.97374492 C3353.6676743 2704.96979096 3353.66594459 2713.96581677 3353.65834423 2722.96186126 C3353.65424032 2728.05868961 3353.65317284 2733.15546462 3353.66109492 2738.25228968 C3353.69842612 2763.99819275 3353.32424042 2789.32877067 3348.59177244 2814.72319686 C3348.39327695 2815.81223312 3348.39327695 2815.81223312 3348.19077146 2816.92327011 C3346.17902741 2827.93526975 3343.86126998 2838.69441487 3340.40427244 2849.34819686 C3340.06412107 2850.42955917 3339.7239697 2851.51092147 3339.37351072 2852.62505233 C3334.00840896 2869.64294607 3328.00963206 2886.17927463 3320.40427244 2902.34819686 C3319.81742673 2903.61035018 3319.81742673 2903.61035018 3319.21872556 2904.89800155 C3307.08650764 2930.78746825 3291.28421945 2954.60125819 3272.95407712 2976.48979843 C3271.52876905 2978.19891075 3270.12455562 2979.92301753 3268.72458494 2981.65288436 C3262.21384256 2989.5869941 3255.07315957 2996.88942063 3247.84177244 3004.16069686 C3247.35871641 3004.64901992 3246.87566038 3005.13734298 3246.37796628 3005.64046371 C3239.73354607 3012.34086276 3232.78312224 3018.46572036 3225.40427244 3024.34819686 C3224.36492636 3025.22322531 3223.32980435 3026.10335074 3222.30270994 3026.99272811 C3192.03467462 3052.99699994 3155.3883621 3072.82160794 3118.00534666 3086.40288436 C3116.30171332 3087.02203851 3114.60011713 3087.64683382 3112.90085447 3088.27788436 C3094.1442671 3095.2432348 3075.13201582 3100.02856805 3055.46677244 3103.59819686 C3054.7949896 3103.72316543 3054.12320676 3103.848134 3053.43106687 3103.97688949 C3033.09161393 3107.72317255 3012.56655469 3108.6512455 2991.92402738 3108.60119653 C2989.75989048 3108.60343779 2987.59575435 3108.60655318 2985.4316198 3108.61044833 C2979.52452111 3108.618583 2973.61748751 3108.61443738 2967.71038897 3108.6081566 C2961.91478926 3108.6040015 2956.11920262 3108.609385 2950.32360471 3108.6144054 C2938.29177341 3108.62449233 2926.25995822 3108.62517538 2914.22812427 3108.62067835 C2901.98044316 3108.61613997 2889.73277346 3108.61602772 2877.48509245 3108.62114377 C2876.70660129 3108.62146616 2875.92811012 3108.62178855 2875.12602831 3108.6221207 C2871.15067991 3108.62378588 2867.17533155 3108.62551957 2863.1999832 3108.62727577 C2834.20818208 3108.63992918 2805.21638645 3108.64270336 2776.22458303 3108.64044082 C2746.8457772 3108.63817532 2717.46697641 3108.6402459 2688.08817136 3108.64758575 C2686.21356278 3108.64804973 2684.3389542 3108.64851368 2682.46434561 3108.64897759 C2674.90564157 3108.65085671 2667.34693753 3108.65276931 2659.7882335 3108.65471997 C2638.48268387 3108.66021013 2617.1771341 3108.66496914 2595.87158418 3108.6692239 C2594.40722608 3108.66951655 2594.40722608 3108.66951655 2592.913285 3108.66981512 C2537.41412325 3108.68082138 2481.91496123 3108.6814342 2426.41579859 3108.68225684 C2417.93314594 3108.68238333 2409.45049328 3108.68251638 2400.96784063 3108.68265794 C2398.841681 3108.68269333 2396.71552137 3108.68272808 2394.58936174 3108.68276219 C2346.85708533 3108.68353799 2299.12480952 3108.68789603 2251.39253341 3108.69302269 C2240.73719083 3108.69416582 2230.08184825 3108.69527377 2219.42650567 3108.69638396 C2217.83996299 3108.69654932 2217.83996299 3108.69654932 2216.22136895 3108.69671803 C2209.80091338 3108.69738704 2203.38045781 3108.69805457 2196.96000225 3108.69872116 C2193.74365875 3108.69905532 2190.52731526 3108.69939034 2187.31097176 3108.69972543 C2137.30384846 3108.70492903 2087.29672512 3108.70938968 2037.28960168 3108.71308982 C2035.6552682 3108.71321093 2035.6552682 3108.71321093 2033.98791787 3108.71333449 C1964.56426267 3108.71846024 1895.1406078 3108.72025955 1825.71695243 3108.71973383 C1822.30353682 3108.71970832 1818.89012122 3108.71968439 1815.47670561 3108.719661 C1791.49650149 3108.71949632 1767.51629738 3108.71929091 1743.53609326 3108.71907524 C1736.6605637 3108.71901371 1729.78503415 3108.71895358 1722.90950459 3108.71889362 C1717.17441926 3108.71884343 1711.43933392 3108.71879185 1705.70424859 3108.71873739 C1597.38440644 3108.71771456 1489.06456727 3108.72055025 1380.74472654 3108.73943222 C1379.60433689 3108.73963093 1378.46394724 3108.73982965 1377.28900033 3108.74003439 C1341.65742104 3108.74625715 1306.02584185 3108.75299012 1270.39426267 3108.75981796 C1233.83268109 3108.76682092 1197.2710995 3108.77376191 1160.70951784 3108.78034675 C1159.02083912 3108.78065133 1159.02083912 3108.78065133 1157.29804568 3108.78096206 C1086.78205768 3108.79366234 1016.26607053 3108.80150448 945.75008142 3108.80406272 C944.66082754 3108.80410278 943.57157365 3108.80414283 942.44931208 3108.8041841 C894.6099304 3108.80593483 846.77054876 3108.80657427 798.93116705 3108.80600233 C779.68492056 3108.80577377 760.43867407 3108.80566163 741.19242757 3108.80559569 C738.00137605 3108.80558289 734.81032453 3108.80556473 731.61927301 3108.80554539 C682.82546713 3108.80527249 634.03166399 3108.80795896 585.23785937 3108.81963575 C584.18609567 3108.81988709 583.13433198 3108.82013844 582.05069665 3108.82039739 C565.13262392 3108.82445526 548.21455125 3108.82874335 531.29647858 3108.83305101 C483.25527475 3108.8452732 435.21407457 3108.85535411 387.17286897 3108.85110867 C386.19749702 3108.85102324 385.22212508 3108.85093782 384.21719641 3108.8508498 C362.93463091 3108.84894281 341.65206573 3108.84591086 320.36950055 3108.84177637 C311.88066141 3108.8401438 303.39182225 3108.83865652 294.90298307 3108.83721435 C293.9770137 3108.83705305 293.05104434 3108.83689174 292.0970153 3108.83672555 C262.7614671 3108.83168387 233.42593925 3108.8388993 204.0903946 3108.85324999 C175.18726234 3108.86733697 146.28415837 3108.86920649 117.38102605 3108.85347612 C113.41456009 3108.85131909 109.44809407 3108.84930129 105.48162799 3108.847367 C104.70517256 3108.84698297 103.92871712 3108.84659894 103.12873274 3108.84620327 C90.93028757 3108.84053194 78.73188976 3108.84812733 66.53345216 3108.86152821 C54.57204438 3108.87439319 42.61070855 3108.87285746 30.64930453 3108.85634046 C24.29242804 3108.8481425 17.93572247 3108.84597081 11.57885661 3108.86184184 C-14.44746565 3108.92254639 -39.85983057 3108.54165084 -65.59572756 3104.34819686 C-66.62364944 3104.18355619 -67.65157133 3104.01891552 -68.71064236 3103.84928573 C-133.60299349 3093.2999228 -198.65955247 3062.81601286 -246.90041506 3017.83257186 C-249.01240169 3015.88587114 -251.15035724 3014.00256755 -253.32619631 3012.12944686 C-258.08709201 3007.97680087 -262.56955904 3003.5663398 -267.03322756 2999.09819686 C-267.87434084 2998.25627792 -268.71545413 2997.41435897 -269.58205569 2996.54692733 C-274.54998915 2991.52970115 -279.24996987 2986.49180451 -283.58400881 2980.91460311 C-285.45184666 2978.53174978 -287.41083233 2976.25700697 -289.40993655 2973.98418319 C-325.79719699 2932.29246878 -350.72406945 2876.81592461 -361.12111819 2822.78911483 C-361.53964402 2820.63663473 -361.98860983 2818.49457502 -362.45510256 2816.35210311 C-367.84884663 2790.34655137 -368.03616551 2764.21155486 -367.97538233 2737.78867379 C-367.96684636 2732.59565066 -367.97600931 2727.40265056 -367.9827629 2722.20962891 C-367.99223163 2713.09744427 -367.99067238 2703.98531444 -367.98173467 2694.87313003 C-367.96841233 2681.23195807 -367.97254878 2667.59082833 -367.97996653 2653.94965385 C-367.99210691 2630.69561353 -367.9900968 2607.44159962 -367.98026049 2584.18755996 C-367.97034287 2560.63177473 -367.96700435 2537.07600193 -367.97163737 2513.52021492 C-367.97178069 2512.7761622 -367.971924 2512.03210948 -367.97207167 2511.2655097 C-367.97338657 2504.44632723 -367.9747705 2497.62714476 -367.97623709 2490.80796231 C-367.97990771 2473.71114124 -367.98255267 2456.61432009 -367.98450661 2439.51749873 C-367.98459666 2438.734213 -367.98468672 2437.95092728 -367.9847795 2437.14390562 C-367.98911913 2398.56619921 -367.98208643 2359.98849581 -367.97404826 2321.41079032 C-367.97122466 2307.83586944 -367.96842251 2294.26094856 -367.96577251 2280.68602765 C-367.96560742 2279.84208828 -367.96544233 2278.99814892 -367.96527224 2278.12863563 C-367.95766656 2238.9976482 -367.95709804 2199.86666167 -367.95816745 2160.73567363 C-367.95825939 2157.32021667 -367.95834339 2153.90475971 -367.95842755 2150.48930275 C-367.95878827 2135.90104806 -367.95919679 2121.31279337 -367.95965655 2106.72453869 C-367.96085627 2068.33535055 -367.96103683 2029.94616244 -367.96045363 1991.55697429 C-367.96044073 1990.68309103 -367.96042784 1989.80920777 -367.96041455 1988.9088432 C-367.9595648 1932.32672249 -367.95431769 1875.74460315 -367.94574606 1819.1624831 C-367.94560954 1818.25939171 -367.94547301 1817.35630032 -367.94533235 1816.42584253 C-367.94075636 1786.17773303 -367.93589714 1755.92962357 -367.93101933 1725.68151412 C-367.92656125 1698.02237373 -367.92223861 1670.36323333 -367.91829836 1642.70409286 C-367.91816805 1641.78944107 -367.91803773 1640.87478927 -367.91790347 1639.93242075 C-367.90557521 1553.06950186 -367.90712635 1466.2065846 -367.91127001 1379.34366514 C-367.91148892 1374.74507571 -367.91170505 1370.14648628 -367.91192123 1365.54789685 C-367.91196403 1364.63783643 -367.91200683 1363.72777601 -367.91205092 1362.790138 C-367.91213734 1360.95217955 -367.91222374 1359.11422111 -367.91231012 1357.27626266 C-367.91239648 1355.43909231 -367.91248291 1353.60192195 -367.91256941 1351.76475159 C-367.91351765 1331.62106481 -367.91443926 1311.47737802 -367.91530847 1291.33369123 C-367.91542682 1288.59710358 -367.91554637 1285.86051593 -367.915666 1283.12392829 C-367.91808553 1227.47657451 -367.91797543 1171.82922124 -367.91496718 1116.18186748 C-367.91492013 1115.30832345 -367.91487308 1114.43477941 -367.9148246 1113.53476435 C-367.9126562 1073.45029662 -367.90971283 1033.36582897 -367.90614477 993.28136134 C-367.90576305 988.98552952 -367.90538497 984.6896977 -367.90500686 980.39386589 C-367.90493204 979.5444178 -367.90485722 978.69496972 -367.90478013 977.81978079 C-367.90440284 973.53544608 -367.90402624 969.25111137 -367.90365059 964.96677667 C-367.90350051 963.25579957 -367.90335042 961.54482247 -367.90320033 959.83384537 C-367.90308904 958.56432803 -367.90308904 958.56432803 -367.9029755 957.26916388 C-367.90252588 952.14980787 -367.90206803 947.03045187 -367.90160503 941.91109586 C-367.89814972 903.63075963 -367.89591734 865.35042394 -367.89731014 827.07008755 C-367.89734035 826.22641085 -367.89737057 825.38273415 -367.8974017 824.51349149 C-367.89773777 815.16831692 -367.89810466 805.82314236 -367.89847991 796.47796779 C-367.89861516 793.09582392 -367.89874967 789.71368005 -367.89888346 786.33153617 C-367.89891656 785.4962875 -367.89894965 784.66103882 -367.89898375 783.80047958 C-367.90049542 745.27286345 -367.90067236 706.74524864 -367.89356422 668.21763301 C-367.89342019 667.43570829 -367.89327615 666.65378358 -367.89312775 665.84816417 C-367.88996034 648.78830335 -367.88619782 631.72844271 -367.88184924 614.66858214 C-367.88012203 607.8645119 -367.87846324 601.06044164 -367.87682307 594.25637138 C-367.87664206 593.51417334 -367.87646104 592.7719753 -367.87627455 592.00728642 C-367.87056752 568.47939237 -367.87095501 544.95150379 -367.87487233 521.42360953 C-367.87880811 497.60993694 -367.87580118 473.79627801 -367.86436369 449.98260709 C-367.85806864 436.43796896 -367.85722219 422.89335701 -367.86442329 409.34871918 C-367.86865857 400.35293627 -367.86564331 391.3571746 -367.85673866 382.36139515 C-367.85189282 377.26230574 -367.85010564 372.16326907 -367.85725404 367.06418116 C-367.88769003 343.64128921 -367.67119663 320.71116301 -363.34572756 297.59819686 C-363.1281177 296.42120224 -362.91050784 295.24420761 -362.68630373 294.03154647 C-352.69061605 241.15971284 -331.80489042 191.56259065 -299.59572756 148.34819686 C-299.19676272 147.81033554 -298.79779788 147.27247421 -298.38674319 146.71831405 C-284.16318225 127.62759256 -268.05122176 108.87703425 -249.95119631 93.36772811 C-248.16894489 91.8396618 -246.40359322 90.2918553 -244.64650881 88.73491561 C-218.30560693 65.52805872 -188.23708717 47.30541548 -156.42019045 32.65801132 C-154.47659641 31.75669037 -152.54123176 30.83747806 -150.61306155 29.90361679 C-141.83383541 25.70509341 -132.88251836 22.46012149 -123.65822756 19.41069686 C-122.88070132 19.15184707 -122.10317507 18.89299728 -121.30208743 18.62630355 C-105.92698341 13.53306773 -90.48086651 9.54024606 -74.59572756 6.34819686 C-73.73962893 6.17497909 -72.8835303 6.00176132 -72.00148928 5.82329452 C-66.88964094 4.81773802 -61.75701617 4.05336018 -56.59572756 3.34819686 C-55.69503177 3.22414801 -54.79433597 3.10009915 -53.86634636 2.97229123 C-35.88027186 0.56697724 -18.12327071 -0.07908239 0 0 Z M-48.59572756 723.34819686 C-48.59572756 1415.02819686 -48.59572756 2106.70819686 -48.59572756 2819.34819686 C968.79427244 2819.34819686 1986.18427244 2819.34819686 3034.40427244 2819.34819686 C3034.40427244 2127.66819686 3034.40427244 1435.98819686 3034.40427244 723.34819686 C2017.01427244 723.34819686 999.62427244 723.34819686 -48.59572756 723.34819686 Z " fill="#FEFEFE" transform="translate(1007.5957275629044,1126.651803135872)"/>
<path d="M0 0 C247.5 0 495 0 750 0 C750 154.44 750 308.88 750 468 C502.5 468 255 468 0 468 C0 313.56 0 159.12 0 0 Z " fill="#FEFEFE" transform="translate(3108,3322)"/>
<path d="M0 0 C247.5 0 495 0 750 0 C750 154.44 750 308.88 750 468 C502.5 468 255 468 0 468 C0 313.56 0 159.12 0 0 Z " fill="#FEFEFE" transform="translate(1143,3322)"/>
<path d="M0 0 C247.5 0 495 0 750 0 C750 154.44 750 308.88 750 468 C502.5 468 255 468 0 468 C0 313.56 0 159.12 0 0 Z " fill="#FEFEFE" transform="translate(3108,2670)"/>
<path d="M0 0 C247.5 0 495 0 750 0 C750 154.44 750 308.88 750 468 C502.5 468 255 468 0 468 C0 313.56 0 159.12 0 0 Z " fill="#FEFEFE" transform="translate(1143,2670)"/>
<path d="M0 0 C247.17 0 494.34 0 749 0 C749 154.44 749 308.88 749 468 C501.83 468 254.66 468 0 468 C0 313.56 0 159.12 0 0 Z " fill="#FEFEFE" transform="translate(2126,3322)"/>
<path d="M0 0 C247.17 0 494.34 0 749 0 C749 154.44 749 308.88 749 468 C501.83 468 254.66 468 0 468 C0 313.56 0 159.12 0 0 Z " fill="#FEFEFE" transform="translate(2126,2670)"/>
<path d="M0 0 C247.17 0 494.34 0 749 0 C749 154.44 749 308.88 749 468 C501.83 468 254.66 468 0 468 C0 313.56 0 159.12 0 0 Z " fill="#FEFEFE" transform="translate(2126,2018)"/>
<path d="M0 0 C247.5 0 495 0 750 0 C750 154.11 750 308.22 750 467 C502.5 467 255 467 0 467 C0 312.89 0 158.78 0 0 Z " fill="#FEFEFE" transform="translate(3108,2019)"/>
<path d="M0 0 C247.5 0 495 0 750 0 C750 154.11 750 308.22 750 467 C502.5 467 255 467 0 467 C0 312.89 0 158.78 0 0 Z " fill="#FEFEFE" transform="translate(1143,2019)"/>
<path d="M0 0 C33.91107925 30.76182576 54.39275177 72.83860747 57.60888672 118.45947266 C58.18266026 131.08260125 58.01693155 143.74296096 57.98640168 156.37537932 C57.9774522 161.45923976 57.98603368 166.5430775 57.99226379 171.62693787 C58.0016912 181.55255583 57.99520591 191.47810044 57.98300085 201.4037129 C57.96929471 212.98678128 57.9710262 224.56983273 57.97313418 236.15290716 C57.97631508 256.83111972 57.96470715 277.5092977 57.94506836 298.1875 C57.92605823 318.2093206 57.91898454 338.2311007 57.92456055 358.25292969 C57.9306302 380.11162039 57.93042033 401.97029335 57.91907471 423.82898259 C57.91786755 426.16338555 57.91666156 428.49778851 57.91545677 430.83219147 C57.91455146 432.55459385 57.91455146 432.55459385 57.91362787 434.31179224 C57.9097634 442.36831226 57.91013657 450.42482563 57.91204262 458.48134613 C57.91417349 468.30854727 57.90887307 478.13571313 57.89442907 487.96290436 C57.88722915 492.96797307 57.88307008 497.97299061 57.88767242 502.97806358 C57.89179499 507.57340972 57.88645466 512.16865091 57.87404635 516.76398125 C57.87115565 518.41232776 57.87149557 520.06068439 57.87568942 521.7090281 C57.91080593 536.90966918 57.46223513 552.70789756 53.48388672 567.45947266 C53.27143311 568.27085693 53.05897949 569.08224121 52.84008789 569.91821289 C40.31070143 615.59268271 9.56038228 654.65122154 -31.14111328 678.52197266 C-73.31103546 702.35328177 -122.61375178 709.58910772 -169.66967773 697.04370117 C-200.93093177 688.25042312 -228.2226385 672.11537057 -251.39111328 649.45947266 C-252.03822266 648.86263672 -252.68533203 648.26580078 -253.35205078 647.65087891 C-259.4352928 641.92463466 -264.41251295 635.13906557 -269.39111328 628.45947266 C-270.02388184 627.61715088 -270.02388184 627.61715088 -270.66943359 626.7578125 C-287.46653177 604.05704796 -297.98819064 576.40676253 -301.39111328 548.45947266 C-301.47803649 547.8044113 -301.56495969 547.14934995 -301.65451694 546.47443825 C-302.64860257 538.06790147 -302.53655823 529.64884959 -302.53155518 521.19871521 C-302.53414217 519.44503482 -302.53715625 517.69135501 -302.54055858 515.93767601 C-302.54859248 511.13601653 -302.55041612 506.33437203 -302.55115604 501.53270662 C-302.55301289 496.34709232 -302.56056334 491.16148569 -302.56729126 485.97587585 C-302.58084901 474.64511048 -302.58689519 463.31434867 -302.59130192 451.98357654 C-302.59406844 444.90342366 -302.59830651 437.82327215 -302.60280609 430.74312019 C-302.61499497 411.1249001 -302.62529533 391.50668109 -302.62868118 371.8884573 C-302.62890075 370.63388267 -302.62912032 369.37930804 -302.62934653 368.086716 C-302.62956481 366.82921197 -302.62978309 365.57170793 -302.63000798 364.27609771 C-302.63045144 361.72809184 -302.63089801 359.18008596 -302.63134766 356.63208008 C-302.63156909 355.36819248 -302.63179052 354.10430488 -302.63201866 352.80211765 C-302.63596566 332.32826575 -302.65341844 311.85444945 -302.67670718 291.38061129 C-302.70044611 270.34051032 -302.71288418 249.3004272 -302.7140491 228.26031262 C-302.71496438 216.45508671 -302.72067977 204.64990722 -302.73886871 192.84469414 C-302.75430396 182.79162338 -302.75936995 172.7386134 -302.75113061 162.68553304 C-302.74723636 157.56141244 -302.74809365 152.4374141 -302.76218796 147.31330872 C-302.77500033 142.61205604 -302.77366557 137.91101659 -302.76159725 133.20976389 C-302.75965289 131.51932532 -302.76265951 129.82887125 -302.77144161 128.13845437 C-302.82599274 116.91756166 -301.68496029 106.44246946 -299.39111328 95.45947266 C-299.23597965 94.71047181 -299.08084601 93.96147097 -298.92101136 93.18977313 C-292.41125293 61.82399237 -277.15556517 33.8959695 -255.39111328 10.45947266 C-254.8903125 9.91484375 -254.38951172 9.37021484 -253.87353516 8.80908203 C-227.53824675 -19.54423614 -192.15097386 -37.37071566 -154.39111328 -44.54052734 C-153.21162109 -44.76869141 -152.03212891 -44.99685547 -150.81689453 -45.23193359 C-96.08252976 -53.84251023 -41.08538484 -36.71327031 0 0 Z " fill="#FEFEFE" transform="translate(1691.39111328125,812.54052734375)"/>
<path d="M0 0 C1.25876953 1.09441406 1.25876953 1.09441406 2.54296875 2.2109375 C5.06375103 4.43860556 7.53852077 6.70706155 10 9 C10.78890625 9.72316406 11.5778125 10.44632813 12.390625 11.19140625 C44.23584231 41.54708921 62.06844974 85.856186 63.23197322 129.46039034 C63.44386986 139.98499546 63.41309192 150.51262291 63.39217401 161.03881097 C63.38531266 166.15815911 63.39589933 171.27747798 63.40411377 176.39682007 C63.41737803 186.39442817 63.41460636 196.3919683 63.40587585 206.38957895 C63.39907148 214.52148309 63.39819441 222.65336833 63.4014473 230.78527451 C63.401907 231.9472975 63.40236669 233.10932049 63.40284032 234.30655631 C63.4037996 236.66793467 63.40477224 239.02931303 63.4057581 241.39069138 C63.41429038 263.47635888 63.40451151 285.56198888 63.388357 307.64765023 C63.37495225 326.55890145 63.37728743 345.47009742 63.39111328 364.38134766 C63.40720128 386.39679175 63.41347033 408.41220309 63.40427649 430.42765224 C63.40332094 432.7792205 63.40237783 435.13078876 63.4014473 437.48235703 C63.40098447 438.63907189 63.40052164 439.79578675 63.40004479 440.98755357 C63.39746481 449.10170724 63.40180431 457.21583996 63.40888596 465.32999039 C63.41733688 475.22966221 63.41494562 485.12926275 63.39904372 495.02892651 C63.39120963 500.07059118 63.38798551 505.11213741 63.39799118 510.15380096 C63.48256796 556.62912909 63.48256796 556.62912909 56.8125 578.1875 C56.51061768 579.18668457 56.20873535 580.18586914 55.89770508 581.21533203 C44.4925811 617.79008235 21.5270431 649.10244699 -9 672 C-10.30130859 672.97646484 -10.30130859 672.97646484 -11.62890625 673.97265625 C-50.38131639 701.99952289 -100.41527728 712.97546432 -147.56884766 705.4453125 C-194.26706816 696.89163162 -235.87428602 671.20322994 -264 633 C-264.41604492 632.44425293 -264.83208984 631.88850586 -265.26074219 631.31591797 C-292.87625483 594.00979126 -297.64713871 552.02307515 -297.49358058 507.2330476 C-297.48025518 502.04362056 -297.49036005 496.85422713 -297.49734497 491.66479492 C-297.50735844 481.53542522 -297.49623661 471.40618751 -297.47764437 461.27683424 C-297.45674418 449.4601371 -297.45702018 437.6434675 -297.45798953 425.82675535 C-297.45898773 404.73742188 -297.44074709 383.64814938 -297.41162109 362.55883789 C-297.38342011 342.12848806 -297.3692812 321.69819182 -297.37060547 301.26782227 C-297.37072534 299.37807341 -297.37072534 299.37807341 -297.37084763 297.4501478 C-297.37092834 296.1924158 -297.37100905 294.9346838 -297.3710922 293.63883871 C-297.37247383 270.31883867 -297.36068492 246.99886124 -297.34278577 223.67886854 C-297.33677024 215.45464776 -297.33462873 207.23043116 -297.33372116 199.00620842 C-297.33235314 188.98201792 -297.32337099 178.95786558 -297.30505554 168.93369126 C-297.29586063 163.82582499 -297.28971337 158.71800731 -297.29224396 153.61013222 C-297.29445222 148.92559536 -297.28728773 144.24116552 -297.27294691 139.55665094 C-297.2693546 137.871395 -297.26902563 136.18612788 -297.27248149 134.50087165 C-297.29786342 120.57030814 -296.3819971 106.86293358 -292.875 93.3125 C-292.66327148 92.48709717 -292.45154297 91.66169434 -292.23339844 90.8112793 C-279.99198263 45.1039676 -249.82208576 5.98972866 -209.01464844 -17.85205078 C-190.10090777 -28.62912405 -170.4005561 -36.01879826 -149 -40 C-147.73929688 -40.24621094 -146.47859375 -40.49242187 -145.1796875 -40.74609375 C-94.29836547 -48.85355715 -38.80837375 -34.16102572 0 0 Z " fill="#FEFEFE" transform="translate(3565,808)"/>
</svg>
